<svg id="Capa_1" enable-background="new 0 0 551.13 551.13" height="512" viewBox="0 0 551.13 551.13" width="512" xmlns="http://www.w3.org/2000/svg"><path d="m465.016 206.674h-17.223v-34.446c0-94.961-77.267-172.228-172.228-172.228s-172.228 77.267-172.228 172.228v34.446h-17.223c-9.52 0-17.223 7.703-17.223 17.223v310.011c0 9.52 7.703 17.223 17.223 17.223h378.902c9.52 0 17.223-7.703 17.223-17.223v-310.011c0-9.52-7.703-17.223-17.223-17.223zm-327.233-34.446c0-75.972 61.81-137.783 137.783-137.783s137.783 61.81 137.783 137.783v34.446h-275.566zm310.01 344.457h-344.456v-275.566h344.456z"/><path d="m258.342 373.623v74.17h34.446v-74.17c10.11-6 17.223-16.556 17.223-29.167 0-19.025-15.421-34.446-34.446-34.446s-34.446 15.421-34.446 34.446c0 12.61 7.113 23.167 17.223 29.167z"/></svg>